<?xml version="1.0" standalone="no"?><!DOCTYPE svg PUBLIC "-//W3C//DTD SVG 1.1//EN" "http://www.w3.org/Graphics/SVG/1.1/DTD/svg11.dtd"><svg t="1751182899320" class="icon" viewBox="0 0 1024 1024" version="1.1" xmlns="http://www.w3.org/2000/svg" p-id="6534" xmlns:xlink="http://www.w3.org/1999/xlink" width="200" height="200"><path d="M834.15964412 140.50762651L512 462.66727063 189.84035588 140.50762651a64.95259088 64.95259088 0 0 0-51.54554307-18.74383383l-5.20662051 0.78099309a65.08275641 65.08275641 0 0 0-76.79765255 64.04143226l0.13016555 650.82756394a65.08275641 65.08275641 0 0 0 130.16551273 0l-0.13016548-516.10625818 279.46535593 279.46535594a65.08275641 65.08275641 0 0 0 83.04559716 7.54959973l9.11158588-7.54959973L837.41378197 321.30752379V837.41378197a65.08275641 65.08275641 0 1 0 130.16551273 0v-650.82756394A65.08275641 65.08275641 0 0 0 902.49653835 121.50346165l-11.71489616 1.04132412-5.076455-0.78099309a64.95259088 64.95259088 0 0 0-51.54554307 18.74383383z" fill="#FF7960" p-id="6535"></path></svg>